<svg width="26" height="21" viewBox="0 0 26 21" fill="none" xmlns="http://www.w3.org/2000/svg">
<path d="M21.4338 2.575C19.8404 1.846 18.1317 1.30891 16.3452 1.00129C16.3126 0.995354 16.2801 1.01019 16.2634 1.03986C16.0436 1.42957 15.8002 1.93798 15.6297 2.33759C13.7082 2.05075 11.7965 2.05075 9.91435 2.33759C9.74386 1.9291 9.4916 1.42957 9.27086 1.03986C9.2541 1.01118 9.2216 0.996344 9.18907 1.00129C7.4035 1.30792 5.69481 1.84502 4.1004 2.575C4.0866 2.58093 4.07477 2.59083 4.06692 2.60368C0.82588 7.43162 -0.0619762 12.1409 0.373576 16.7918C0.375547 16.8145 0.388357 16.8363 0.406095 16.8501C2.54444 18.4159 4.61579 19.3665 6.64868 19.9965C6.68121 20.0064 6.71569 19.9946 6.73639 19.9679C7.21727 19.3131 7.64593 18.6227 8.01347 17.8966C8.03516 17.8541 8.01445 17.8036 7.97012 17.7868C7.29019 17.5297 6.64276 17.2161 6.01998 16.86C5.97072 16.8313 5.96678 16.7611 6.01209 16.7275C6.14315 16.6295 6.27424 16.5277 6.39938 16.4248C6.42202 16.406 6.45357 16.402 6.48019 16.4139C10.5716 18.2765 15.001 18.2765 19.0442 16.4139C19.0708 16.4011 19.1023 16.405 19.126 16.4238C19.2511 16.5267 19.3822 16.6295 19.5142 16.7275C19.5596 16.7611 19.5566 16.8313 19.5073 16.86C18.8846 17.223 18.2371 17.5297 17.5562 17.7858C17.5119 17.8027 17.4922 17.8541 17.5139 17.8966C17.8893 18.6216 18.3179 19.3121 18.7899 19.9669C18.8097 19.9946 18.8451 20.0064 18.8777 19.9965C20.9204 19.3665 22.9917 18.4159 25.1301 16.8501C25.1488 16.8363 25.1607 16.8155 25.1626 16.7928C25.6839 11.4158 24.2895 6.74517 21.4663 2.60466C21.4594 2.59083 21.4476 2.58093 21.4338 2.575ZM8.62445 13.9599C7.39266 13.9599 6.37769 12.8323 6.37769 11.4475C6.37769 10.0627 7.37297 8.93511 8.62445 8.93511C9.88576 8.93511 10.8909 10.0726 10.8712 11.4475C10.8712 12.8323 9.8759 13.9599 8.62445 13.9599ZM16.9315 13.9599C15.6997 13.9599 14.6847 12.8323 14.6847 11.4475C14.6847 10.0627 15.68 8.93511 16.9315 8.93511C18.1928 8.93511 19.1979 10.0726 19.1782 11.4475C19.1782 12.8323 18.1928 13.9599 16.9315 13.9599Z" fill="#29C708"/>
</svg>
