<svg width="22" height="21" viewBox="0 0 22 21" fill="none" xmlns="http://www.w3.org/2000/svg">
<g clip-path="url(#clip0_93_825)">
<path fill-rule="evenodd" clip-rule="evenodd" d="M21.2703 10.5C21.2703 16.299 16.5693 21 10.7703 21C4.97127 21 0.270264 16.299 0.270264 10.5C0.270264 4.70101 4.97127 0 10.7703 0C16.5693 0 21.2703 4.70101 21.2703 10.5ZM11.1465 7.75156C10.1253 8.17635 8.08413 9.05555 5.02317 10.3892C4.52612 10.5868 4.26574 10.7802 4.24204 10.9693C4.20198 11.2888 4.60214 11.4146 5.14706 11.586C5.22118 11.6093 5.29798 11.6334 5.37671 11.659C5.91282 11.8333 6.63399 12.0372 7.00889 12.0453C7.34896 12.0526 7.72853 11.9124 8.14757 11.6247C11.0075 9.69413 12.4838 8.71833 12.5765 8.6973C12.6419 8.68246 12.7325 8.6638 12.7939 8.71836C12.8553 8.77293 12.8493 8.87628 12.8428 8.904C12.8031 9.073 11.2324 10.5333 10.4195 11.2891C10.1661 11.5247 9.98633 11.6918 9.94958 11.7299C9.86727 11.8154 9.78337 11.8963 9.70275 11.974C9.20468 12.4542 8.83119 12.8142 9.72342 13.4022C10.1522 13.6847 10.4953 13.9184 10.8376 14.1515C11.2114 14.4061 11.5843 14.66 12.0667 14.9762C12.1896 15.0568 12.307 15.1405 12.4213 15.222C12.8563 15.5321 13.2472 15.8107 13.73 15.7663C14.0106 15.7405 14.3004 15.4767 14.4476 14.6898C14.7955 12.8302 15.4792 8.80115 15.6372 7.14085C15.651 6.99539 15.6336 6.80922 15.6196 6.7275C15.6057 6.64578 15.5764 6.52934 15.4702 6.44315C15.3444 6.34107 15.1502 6.31954 15.0633 6.32107C14.6684 6.32803 14.0625 6.53871 11.1465 7.75156Z" fill="#B6B6B6"/>
</g>
<defs>
<clipPath id="clip0_93_825">
<rect width="21" height="21" fill="white" transform="translate(0.270264)"/>
</clipPath>
</defs>
</svg>
