<svg width="22" height="21" viewBox="0 0 22 21" fill="none" xmlns="http://www.w3.org/2000/svg">
<g clip-path="url(#clip0_93_824)">
<path d="M6.87665 19.0313C14.7992 19.0313 19.1338 12.4659 19.1338 6.77416C19.1338 6.58959 19.1297 6.40092 19.1215 6.21635C19.9647 5.60656 20.6923 4.85125 21.2703 3.98592C20.485 4.33531 19.6512 4.56349 18.7974 4.66267C19.6964 4.12383 20.3695 3.27732 20.6919 2.28008C19.8462 2.78127 18.9214 3.13482 17.957 3.32556C17.3072 2.63515 16.4481 2.17801 15.5125 2.02483C14.5768 1.87164 13.6168 2.03095 12.7808 2.47811C11.9448 2.92528 11.2793 3.6354 10.8874 4.49868C10.4954 5.36196 10.3988 6.33032 10.6124 7.25404C8.89994 7.16811 7.22471 6.72327 5.69525 5.94837C4.16579 5.17346 2.81625 4.08579 1.73411 2.75586C1.18411 3.70412 1.01581 4.82622 1.26342 5.89411C1.51102 6.962 2.15594 7.89555 3.06712 8.50502C2.38306 8.4833 1.71399 8.29913 1.11519 7.96771V8.02103C1.11457 9.01616 1.4586 9.98079 2.08878 10.751C2.71897 11.5211 3.59642 12.0493 4.57198 12.2456C3.93831 12.419 3.27325 12.4443 2.62825 12.3195C2.90354 13.1753 3.43914 13.9238 4.16031 14.4606C4.88149 14.9973 5.75224 15.2956 6.65106 15.3136C5.12513 16.5123 3.24017 17.1624 1.29976 17.1593C0.95564 17.1588 0.611863 17.1377 0.270264 17.0962C2.24151 18.3608 4.5346 19.0325 6.87665 19.0313Z" fill="#B6B6B6"/>
</g>
<defs>
<clipPath id="clip0_93_824">
<rect width="21" height="21" fill="white" transform="translate(0.270264)"/>
</clipPath>
</defs>
</svg>
