<svg width="116" height="30" viewBox="0 0 116 30" fill="none" xmlns="http://www.w3.org/2000/svg">
<path d="M44.58 14.98C44.58 12.14 46.32 10.36 48.86 10.36C51.38 10.36 53.12 12.14 53.12 14.98C53.12 17.82 51.38 19.64 48.86 19.64C46.32 19.64 44.58 17.82 44.58 14.98ZM56 14.98C56 10.8 52.84 7.84 48.86 7.84C44.92 7.84 41.7 10.8 41.7 14.98C41.7 19.18 44.92 22.14 48.86 22.14C49.48 22.14 50.1 22.06 50.66 21.92L52.78 24.46H56.26L53.06 20.86C54.84 19.6 56 17.52 56 14.98ZM68.5822 10.92H65.7622V17.02C65.7622 18.8 64.8022 19.76 63.2822 19.76C61.8022 19.76 60.8222 18.8 60.8222 17.02V10.92H58.0222V17.42C58.0222 20.46 59.8822 22.14 62.4622 22.14C63.8422 22.14 65.0622 21.54 65.7622 20.6V22H68.5822V10.92ZM71.3448 22H74.1448V10.92H71.3448V22ZM72.7648 9.6C73.7448 9.6 74.4848 8.88 74.4848 7.96C74.4848 7.04 73.7448 6.32 72.7648 6.32C71.7648 6.32 71.0448 7.04 71.0448 7.96C71.0448 8.88 71.7648 9.6 72.7648 9.6ZM84.6713 22H87.4713V15.5C87.4713 12.44 85.6312 10.76 83.0513 10.76C81.6313 10.76 80.4313 11.36 79.7113 12.3V10.92H76.9113V22H79.7113V15.88C79.7113 14.1 80.6913 13.14 82.2113 13.14C83.6913 13.14 84.6713 14.1 84.6713 15.88V22ZM100.834 16.46C100.834 12.96 98.3339 10.74 95.1339 10.74C91.9339 10.74 89.4339 12.96 89.4339 16.46C89.4339 19.94 91.8539 22.18 95.0539 22.18C98.2739 22.18 100.834 19.94 100.834 16.46ZM92.2739 16.46C92.2739 14.24 93.6139 13.18 95.0939 13.18C96.5739 13.18 97.9539 14.24 97.9539 16.46C97.9539 18.66 96.5339 19.74 95.0539 19.74C93.5539 19.74 92.2739 18.66 92.2739 16.46ZM102.168 16.42C102.168 19.88 104.408 22.18 107.208 22.18C108.968 22.18 110.228 21.34 110.888 20.38V22H113.708V10.92H110.888V12.5C110.228 11.58 109.008 10.74 107.228 10.74C104.408 10.74 102.168 12.96 102.168 16.42ZM110.888 16.46C110.888 18.56 109.488 19.72 107.948 19.72C106.448 19.72 105.028 18.52 105.028 16.42C105.028 14.32 106.448 13.2 107.948 13.2C109.488 13.2 110.888 14.36 110.888 16.46Z" fill="#0C0C0C"/>
<path d="M33.7493 15.5C33.7493 11.9196 32.327 8.48581 29.7952 5.95407C27.2635 3.42232 23.8297 2 20.2493 2C16.6689 2 13.2351 3.42232 10.7034 5.95407C8.17159 8.48581 6.74927 11.9196 6.74927 15.5H10.9681C12.3661 15.5 13.4563 14.3285 13.9684 13.0276C14.3046 12.1736 14.8147 11.3887 15.4763 10.727C16.7422 9.46117 18.4591 8.75001 20.2493 8.75001C22.0395 8.75001 23.7564 9.46117 25.0223 10.727C26.2882 11.9929 26.9993 13.7098 26.9993 15.5H33.7493Z" fill="url(#paint0_linear_93_832)"/>
<path d="M25.9724 20.6662C26.6509 19.0283 27.0001 17.2728 27.0001 15.5H33.7494C33.7494 22.9558 27.7052 29 20.2494 29C19.0818 29 17.9487 28.8518 16.8682 28.5731C17.4795 28.4156 18.0804 28.215 18.6663 27.9724C20.3042 27.2939 21.7924 26.2995 23.046 25.0459C24.2996 23.7923 25.2941 22.3041 25.9724 20.6662Z" fill="#FBCF8E"/>
<path d="M0 15.5C-2.53622e-07 17.2729 0.349188 19.0284 1.02763 20.6663C1.70607 22.3042 2.70047 23.7924 3.95407 25.046C5.20765 26.2995 6.69589 27.294 8.33379 27.9724C9.97167 28.6509 11.7272 29 13.5 29C15.2728 29 17.0283 28.6509 18.6662 27.9724C20.3041 27.294 21.7924 26.2995 23.046 25.046C24.2996 23.7924 25.2939 22.3042 25.9724 20.6663C26.6508 19.0284 27.0001 17.2729 27.0001 15.5H22.7812C21.3833 15.5 20.293 16.6715 19.781 17.9723C19.7664 18.0094 19.7514 18.0463 19.7362 18.0832C19.397 18.9021 18.8998 19.6463 18.273 20.273C17.6462 20.8998 16.9021 21.397 16.0831 21.7363C15.2642 22.0755 14.3865 22.2501 13.5 22.2501C12.6136 22.2501 11.7359 22.0755 10.9169 21.7363C10.0979 21.397 9.35387 20.8998 8.72703 20.273C8.10024 19.6463 7.60305 18.9021 7.26383 18.0832C6.9246 17.2642 6.75001 16.3864 6.75001 15.5H0Z" fill="url(#paint1_linear_93_832)"/>
<path d="M0.00158691 15.5C0.00158691 8.04415 6.04574 2 13.5016 2C14.6689 2 15.8016 2.14816 16.8821 2.42671C14.5638 3.02392 12.4252 4.23251 10.7036 5.95408C8.17185 8.48579 6.74955 11.9196 6.74955 15.5H0.00158691Z" fill="#73E5E2"/>
<defs>
<linearGradient id="paint0_linear_93_832" x1="33.7493" y1="8.75001" x2="6.74927" y2="8.75001" gradientUnits="userSpaceOnUse">
<stop stop-color="#73E5E2"/>
<stop offset="1" stop-color="#394F87"/>
</linearGradient>
<linearGradient id="paint1_linear_93_832" x1="8.85156e-07" y1="22.2501" x2="27.0001" y2="22.2501" gradientUnits="userSpaceOnUse">
<stop stop-color="#FBDC8E"/>
<stop offset="1" stop-color="#FB958E"/>
</linearGradient>
</defs>
</svg>
