<svg width="89" height="12" viewBox="0 0 89 12" fill="none" xmlns="http://www.w3.org/2000/svg">
<path d="M4.39489 3.36364V4.35795H0.4375V3.36364H4.39489ZM1.59091 1.53409H2.7642V8.8125C2.7642 9.14394 2.81226 9.39252 2.90838 9.55824C3.00781 9.72064 3.13376 9.83002 3.28622 9.88636C3.442 9.93939 3.60606 9.96591 3.77841 9.96591C3.90767 9.96591 4.01373 9.95928 4.09659 9.94602C4.17945 9.92945 4.24574 9.91619 4.29545 9.90625L4.53409 10.9602C4.45455 10.9901 4.34351 11.0199 4.20099 11.0497C4.05848 11.0829 3.87784 11.0994 3.65909 11.0994C3.32765 11.0994 3.00284 11.0282 2.68466 10.8857C2.36979 10.7431 2.10795 10.526 1.89915 10.2344C1.69366 9.94271 1.59091 9.57481 1.59091 9.13068V1.53409ZM9.27947 11.1591C8.54368 11.1591 7.90897 10.9967 7.37536 10.6719C6.84505 10.3438 6.43572 9.88636 6.14737 9.29972C5.86233 8.70975 5.71982 8.02367 5.71982 7.24148C5.71982 6.45928 5.86233 5.76989 6.14737 5.1733C6.43572 4.57339 6.83677 4.10606 7.3505 3.77131C7.86754 3.43324 8.47076 3.2642 9.16016 3.2642C9.55788 3.2642 9.95064 3.33049 10.3384 3.46307C10.7262 3.59564 11.0792 3.81108 11.3974 4.10938C11.7156 4.40436 11.9691 4.79545 12.158 5.28267C12.3469 5.76989 12.4414 6.36979 12.4414 7.08239V7.57955H6.55504V6.56534H11.2482C11.2482 6.13447 11.1621 5.75 10.9897 5.41193C10.8207 5.07386 10.5787 4.80705 10.2638 4.61151C9.9523 4.41596 9.5844 4.31818 9.16016 4.31818C8.69283 4.31818 8.28847 4.43419 7.94709 4.66619C7.60902 4.89489 7.34884 5.19318 7.16655 5.56108C6.98426 5.92898 6.89311 6.32339 6.89311 6.74432V7.42045C6.89311 7.99716 6.99254 8.48603 7.19141 8.88707C7.39358 9.2848 7.67365 9.58807 8.03161 9.79688C8.38956 10.0024 8.80552 10.1051 9.27947 10.1051C9.58771 10.1051 9.86612 10.062 10.1147 9.97585C10.3666 9.88636 10.5837 9.75379 10.766 9.57812C10.9483 9.39915 11.0891 9.17708 11.1886 8.91193L12.3221 9.23011C12.2028 9.61458 12.0022 9.95265 11.7205 10.2443C11.4388 10.5327 11.0908 10.758 10.6765 10.9205C10.2622 11.0795 9.79652 11.1591 9.27947 11.1591ZM14.8961 3.36364L16.7257 6.4858L18.5552 3.36364H19.9075L17.4416 7.18182L19.9075 11H18.5552L16.7257 8.03693L14.8961 11H13.5439L15.97 7.18182L13.5439 3.36364H14.8961ZM24.9027 3.36364V4.35795H20.9453V3.36364H24.9027ZM22.0987 1.53409H23.272V8.8125C23.272 9.14394 23.3201 9.39252 23.4162 9.55824C23.5156 9.72064 23.6416 9.83002 23.794 9.88636C23.9498 9.93939 24.1139 9.96591 24.2862 9.96591C24.4155 9.96591 24.5215 9.95928 24.6044 9.94602C24.6873 9.92945 24.7536 9.91619 24.8033 9.90625L25.0419 10.9602C24.9624 10.9901 24.8513 11.0199 24.7088 11.0497C24.5663 11.0829 24.3857 11.0994 24.1669 11.0994C23.8355 11.0994 23.5107 11.0282 23.1925 10.8857C22.8776 10.7431 22.6158 10.526 22.407 10.2344C22.2015 9.94271 22.0987 9.57481 22.0987 9.13068V1.53409ZM30.7642 11V0.818182H31.9375V4.5767H32.0369C32.1231 4.44413 32.2424 4.27509 32.3949 4.0696C32.5507 3.8608 32.7727 3.67519 33.0611 3.51278C33.3527 3.34706 33.7472 3.2642 34.2443 3.2642C34.8873 3.2642 35.4541 3.42495 35.9446 3.74645C36.4351 4.06794 36.8179 4.52367 37.093 5.11364C37.3681 5.7036 37.5057 6.39962 37.5057 7.2017C37.5057 8.01042 37.3681 8.71141 37.093 9.30469C36.8179 9.89465 36.4368 10.352 35.9496 10.6768C35.4624 10.9983 34.9006 11.1591 34.2642 11.1591C33.7737 11.1591 33.3809 11.0779 33.0859 10.9155C32.791 10.7498 32.5639 10.5625 32.4048 10.3537C32.2457 10.1416 32.1231 9.96591 32.0369 9.8267H31.8977V11H30.7642ZM31.9176 7.18182C31.9176 7.75852 32.0021 8.26728 32.1712 8.7081C32.3402 9.1456 32.5871 9.48864 32.9119 9.73722C33.2367 9.98248 33.6345 10.1051 34.1051 10.1051C34.5956 10.1051 35.005 9.97585 35.3331 9.71733C35.6645 9.45549 35.9131 9.10417 36.0788 8.66335C36.2479 8.21922 36.3324 7.72538 36.3324 7.18182C36.3324 6.64489 36.2495 6.16098 36.0838 5.73011C35.9214 5.29593 35.6745 4.95289 35.343 4.70099C35.0149 4.44579 34.6023 4.31818 34.1051 4.31818C33.6278 4.31818 33.2268 4.43916 32.902 4.68111C32.5772 4.91974 32.3319 5.2545 32.1662 5.68537C32.0005 6.11293 31.9176 6.61174 31.9176 7.18182ZM44.1129 7.87784V3.36364H45.2862V11H44.1129V9.70739H44.0334C43.8544 10.0952 43.576 10.425 43.1982 10.6967C42.8203 10.9652 42.343 11.0994 41.7663 11.0994C41.2891 11.0994 40.8648 10.995 40.4936 10.7862C40.1224 10.5741 39.8307 10.2559 39.6186 9.83168C39.4065 9.40412 39.3004 8.86553 39.3004 8.21591V3.36364H40.4737V8.13636C40.4737 8.69318 40.6295 9.13731 40.9411 9.46875C41.2559 9.80019 41.657 9.96591 42.1442 9.96591C42.4358 9.96591 42.7325 9.89134 43.0341 9.74219C43.339 9.59304 43.5942 9.36435 43.7997 9.05611C44.0085 8.74787 44.1129 8.35511 44.1129 7.87784ZM50.7562 3.36364V4.35795H46.7988V3.36364H50.7562ZM47.9522 1.53409H49.1255V8.8125C49.1255 9.14394 49.1736 9.39252 49.2697 9.55824C49.3691 9.72064 49.4951 9.83002 49.6475 9.88636C49.8033 9.93939 49.9674 9.96591 50.1397 9.96591C50.269 9.96591 50.3751 9.95928 50.4579 9.94602C50.5408 9.92945 50.6071 9.91619 50.6568 9.90625L50.8954 10.9602C50.8159 10.9901 50.7048 11.0199 50.5623 11.0497C50.4198 11.0829 50.2392 11.0994 50.0204 11.0994C49.689 11.0994 49.3642 11.0282 49.046 10.8857C48.7311 10.7431 48.4693 10.526 48.2605 10.2344C48.055 9.94271 47.9522 9.57481 47.9522 9.13068V1.53409ZM55.8422 3.36364V4.35795H51.8848V3.36364H55.8422ZM53.0382 1.53409H54.2115V8.8125C54.2115 9.14394 54.2595 9.39252 54.3556 9.55824C54.4551 9.72064 54.581 9.83002 54.7335 9.88636C54.8893 9.93939 55.0533 9.96591 55.2257 9.96591C55.3549 9.96591 55.461 9.95928 55.5439 9.94602C55.6267 9.92945 55.693 9.91619 55.7427 9.90625L55.9814 10.9602C55.9018 10.9901 55.7908 11.0199 55.6483 11.0497C55.5057 11.0829 55.3251 11.0994 55.1064 11.0994C54.7749 11.0994 54.4501 11.0282 54.1319 10.8857C53.8171 10.7431 53.5552 10.526 53.3464 10.2344C53.1409 9.94271 53.0382 9.57481 53.0382 9.13068V1.53409ZM60.6273 11.1591C59.9379 11.1591 59.333 10.995 58.8127 10.6669C58.2956 10.3388 57.8913 9.87973 57.5996 9.28977C57.3113 8.69981 57.1671 8.01042 57.1671 7.22159C57.1671 6.42614 57.3113 5.73177 57.5996 5.13849C57.8913 4.54522 58.2956 4.08452 58.8127 3.75639C59.333 3.42827 59.9379 3.2642 60.6273 3.2642C61.3167 3.2642 61.9199 3.42827 62.437 3.75639C62.9573 4.08452 63.3617 4.54522 63.65 5.13849C63.9417 5.73177 64.0875 6.42614 64.0875 7.22159C64.0875 8.01042 63.9417 8.69981 63.65 9.28977C63.3617 9.87973 62.9573 10.3388 62.437 10.6669C61.9199 10.995 61.3167 11.1591 60.6273 11.1591ZM60.6273 10.1051C61.151 10.1051 61.5819 9.97088 61.9199 9.70241C62.258 9.43395 62.5082 9.08097 62.6706 8.64347C62.833 8.20597 62.9142 7.73201 62.9142 7.22159C62.9142 6.71117 62.833 6.23556 62.6706 5.79474C62.5082 5.35393 62.258 4.99763 61.9199 4.72585C61.5819 4.45407 61.151 4.31818 60.6273 4.31818C60.1036 4.31818 59.6728 4.45407 59.3347 4.72585C58.9966 4.99763 58.7464 5.35393 58.584 5.79474C58.4216 6.23556 58.3404 6.71117 58.3404 7.22159C58.3404 7.73201 58.4216 8.20597 58.584 8.64347C58.7464 9.08097 58.9966 9.43395 59.3347 9.70241C59.6728 9.97088 60.1036 10.1051 60.6273 10.1051ZM67.0518 6.40625V11H65.8786V3.36364H67.0121V4.55682H67.1115C67.2905 4.16903 67.5623 3.85748 67.9268 3.62216C68.2914 3.38352 68.7621 3.2642 69.3388 3.2642C69.8558 3.2642 70.3082 3.37027 70.696 3.58239C71.0838 3.79119 71.3854 4.10938 71.6009 4.53693C71.8163 4.96117 71.924 5.49811 71.924 6.14773V11H70.7507V6.22727C70.7507 5.62737 70.5949 5.16004 70.2834 4.82528C69.9718 4.48722 69.5443 4.31818 69.0007 4.31818C68.6262 4.31818 68.2914 4.39938 67.9964 4.56179C67.7048 4.72419 67.4744 4.96117 67.3054 5.27273C67.1364 5.58428 67.0518 5.96212 67.0518 6.40625ZM84.4586 11L83.693 10.2443L86.845 7.09233H78.6816V5.99858H86.845L83.693 2.85653L84.4586 2.09091L88.9132 6.54545L84.4586 11Z" fill="#25B307"/>
</svg>
