<svg width="13" height="13" viewBox="0 0 13 13" fill="none" xmlns="http://www.w3.org/2000/svg">
<path d="M12.0714 1L12.8214 0.999999C12.8214 0.585786 12.4856 0.25 12.0714 0.25V1ZM1.47156 10.4678L0.939347 10.9962L1.99623 12.0607L2.52844 11.5322L1.47156 10.4678ZM5.35715 0.25C4.94294 0.25 4.60715 0.585786 4.60715 1C4.60715 1.41421 4.94294 1.75 5.35715 1.75V0.25ZM11.3214 7.66667C11.3214 8.08088 11.6572 8.41667 12.0714 8.41667C12.4857 8.41667 12.8214 8.08088 12.8214 7.66667L11.3214 7.66667ZM11.543 0.467786L1.47156 10.4678L2.52844 11.5322L12.5999 1.53221L11.543 0.467786ZM5.35715 1.75H12.0714V0.25H5.35715V1.75ZM11.3214 1L11.3214 7.66667L12.8214 7.66667L12.8214 0.999999L11.3214 1Z" fill="#25B307"/>
</svg>
