<svg width="47" height="47" viewBox="0 0 47 47" fill="none" xmlns="http://www.w3.org/2000/svg">
<circle cx="23.5" cy="23.5" r="23.5" fill="#EAF9E6"/>
<rect x="13.7528" y="14.5488" width="14.5816" height="15.276" fill="#125A04"/>
<path d="M33.195 18.0204H15.8359C15.07 18.0204 14.4471 17.3976 14.4471 16.6317C14.4471 15.8658 15.07 15.243 15.8359 15.243H28.3344V16.6317H29.7232V14.5486C29.7232 14.1653 29.4121 13.8542 29.0288 13.8542H15.8359C14.3041 13.8542 13.0584 15.0999 13.0584 16.6317V28.7831C13.0584 30.6974 14.6159 32.2549 16.5302 32.2549H33.195C33.5783 32.2549 33.8893 31.9438 33.8893 31.5605V18.7148C33.8893 18.3315 33.5783 18.0204 33.195 18.0204ZM29.7232 26.3528C28.9559 26.3528 28.3344 25.7313 28.3344 24.9641C28.3344 24.1968 28.9559 23.5753 29.7232 23.5753C30.4904 23.5753 31.1119 24.1968 31.1119 24.9641C31.1119 25.7313 30.4904 26.3528 29.7232 26.3528Z" fill="#25B307"/>
</svg>
